<?xml version="1.0" standalone="no"?>
<!DOCTYPE svg PUBLIC "-//W3C//DTD SVG 20010904//EN"
 "http://www.w3.org/TR/2001/REC-SVG-20010904/DTD/svg10.dtd">
<svg version="1.0" xmlns="http://www.w3.org/2000/svg"
 width="2000.000000pt" height="1294.000000pt" viewBox="0 0 2000.000000 1294.000000"
 preserveAspectRatio="xMidYMid meet">
<metadata>
Created by potrace 1.16, written by Peter Selinger 2001-2019
</metadata>
<g transform="translate(0.000000,1294.000000) scale(0.100000,-0.100000)"
fill="#000000" stroke="none">
<path d="M1920 6490 l0 -1860 295 0 295 0 0 1387 c0 762 3 1383 7 1379 5 -4
269 -539 588 -1189 l581 -1182 209 -2 210 -3 579 1183 c319 650 583 1186 588
1191 4 6 8 -614 8 -1377 l0 -1387 290 0 290 0 0 1860 0 1860 -368 0 -368 0
-250 -502 c-138 -277 -412 -830 -610 -1230 -197 -401 -363 -727 -367 -725 -5
1 -282 554 -616 1227 l-608 1225 -377 3 -376 2 0 -1860z"/>
<path d="M8007 8343 c-3 -5 -125 -280 -272 -613 -535 -1210 -1358 -3075 -1362
-3088 -4 -10 62 -12 323 -10 l328 3 176 415 175 415 941 3 940 2 179 -420 178
-420 335 0 c314 0 334 1 327 18 -3 9 -369 846 -812 1860 l-806 1842 -323 0
c-178 0 -325 -3 -327 -7z m653 -1473 c189 -443 345 -813 347 -822 5 -17 -33
-18 -691 -18 -383 0 -696 3 -696 8 0 10 693 1643 695 1640 2 -2 157 -365 345
-808z"/>
<path d="M10780 6490 l0 -1860 315 0 315 0 0 560 0 560 483 0 c265 0 536 5
602 10 215 19 471 92 633 182 346 191 553 513 603 939 14 126 7 382 -15 489
-113 562 -504 888 -1166 970 -53 6 -401 10 -927 10 l-843 0 0 -1860z m1655
1290 c112 -13 261 -52 340 -89 251 -118 378 -356 362 -676 -12 -217 -63 -344
-191 -470 -97 -97 -199 -153 -349 -190 -146 -37 -317 -46 -772 -43 l-410 3 -3
738 -2 737 467 0 c258 0 509 -5 558 -10z"/>
<path d="M14370 6490 l0 -1860 310 0 310 0 0 1860 0 1860 -310 0 -310 0 0
-1860z"/>
<path d="M15530 8070 l0 -280 590 0 590 0 0 -1580 0 -1580 315 0 315 0 0 1580
0 1580 590 0 590 0 0 280 0 280 -1495 0 -1495 0 0 -280z"/>
</g>
</svg>
